/* XPM */
static char * exit_xpm[] = {
"20 20 105 2",
"  	c None",
". 	c #000000",
"+ 	c #0B0000",
"@ 	c #4B0000",
"# 	c #830000",
"$ 	c #9A0000",
"% 	c #990000",
"& 	c #7F0000",
"* 	c #420000",
"= 	c #050000",
"- 	c #650000",
"; 	c #DB0000",
"> 	c #E50000",
", 	c #BE0000",
"' 	c #AA0000",
") 	c #AC0000",
"! 	c #C10000",
"~ 	c #E90000",
"{ 	c #D00000",
"] 	c #510000",
"^ 	c #060000",
"/ 	c #A50000",
"( 	c #EF0000",
"_ 	c #750000",
": 	c #160000",
"< 	c #040000",
"[ 	c #B30000",
"} 	c #010000",
"| 	c #1D0000",
"1 	c #860000",
"2 	c #F40000",
"3 	c #8A0000",
"4 	c #A70000",
"5 	c #E30000",
"6 	c #2F0000",
"7 	c #080000",
"8 	c #ED0000",
"9 	c #030000",
"0 	c #400000",
"a 	c #F10000",
"b 	c #870000",
"c 	c #670000",
"d 	c #F80000",
"e 	c #2C0000",
"f 	c #0A0000",
"g 	c #E70000",
"h 	c #D50000",
"i 	c #430000",
"j 	c #FD0000",
"k 	c #480000",
"l 	c #0D0000",
"m 	c #940000",
"n 	c #CB0000",
"o 	c #EB0000",
"p 	c #110000",
"q 	c #250000",
"r 	c #310000",
"s 	c #8D0000",
"t 	c #BC0000",
"u 	c #020000",
"v 	c #6A0000",
"w 	c #A60000",
"x 	c #A00000",
"y 	c #B90000",
"z 	c #850000",
"A 	c #A10000",
"B 	c #8C0000",
"C 	c #D10000",
"D 	c #4D0000",
"E 	c #150000",
"F 	c #290000",
"G 	c #E10000",
"H 	c #800000",
"I 	c #9E0000",
"J 	c #C50000",
"K 	c #5D0000",
"L 	c #FC0000",
"M 	c #370000",
"N 	c #4E0000",
"O 	c #FE0000",
"P 	c #3F0000",
"Q 	c #9B0000",
"R 	c #EC0000",
"S 	c #3B0000",
"T 	c #EE0000",
"U 	c #DC0000",
"V 	c #F70000",
"W 	c #7A0000",
"X 	c #960000",
"Y 	c #220000",
"Z 	c #090000",
"` 	c #9C0000",
" .	c #2A0000",
"..	c #980000",
"+.	c #F50000",
"@.	c #7B0000",
"#.	c #570000",
"$.	c #B80000",
"%.	c #CE0000",
"&.	c #440000",
"*.	c #3C0000",
"=.	c #730000",
"-.	c #880000",
";.	c #6F0000",
">.	c #330000",
". . . . . . . . . . . . . . . . . . . . ",
". . . . . . + @ # $ % & * = . . . . . . ",
". . . . . - ; > , ' ) ! ~ { ] . . . . . ",
". . . ^ / ( _ : < [ / } | 1 2 3 . . . . ",
". . } 4 5 6 . . 7 8 ; 9 . . 0 a b . . . ",
". . c d e . . . f g h = . . . i j k . . ",
". l > _ . . . . f g h = . . . . m n 9 . ",
". ] o p . . . . f g h = . . . . q a r . ",
". s t . . . . . f g h = . . . . u { v . ",
". w x . . . . . f g h = . . . . . y z . ",
". / A . . . . . f g h = . . . . . y z . ",
". B , . . . . . f g h = . . . . u C v . ",
". D 8 E . . . . f g h = . . . . F a e . ",
". f G H . . . . f g h = . . . . I J } . ",
". . K L M . . . f g h = . . . N O P . . ",
". . . Q R S . . 7 T U 9 . . N V W . . . ",
". . . 9 X 2 b Y Z ' ` ^  ...+.@.. . . . ",
". . . . . #.C R n $.y %.8 J &.. . . . . ",
". . . . . . = *.=.3 -.;.>.. . . . . . . ",
". . . . . . . . . . . . . . . . . . . . "};
