/* XPM */
static char * lock_xpm[] = {
"20 20 93 2",
"  	c None",
". 	c #000000",
"+ 	c #002C15",
"@ 	c #00773A",
"# 	c #008D45",
"$ 	c #008B44",
"% 	c #006431",
"& 	c #001209",
"* 	c #002B15",
"= 	c #009B4C",
"- 	c #007B3C",
"; 	c #004C25",
"> 	c #005529",
", 	c #009046",
"' 	c #00793B",
") 	c #000804",
"! 	c #000502",
"~ 	c #007A3B",
"{ 	c #007A3C",
"] 	c #000301",
"^ 	c #001C0E",
"/ 	c #004220",
"( 	c #00150A",
"_ 	c #009549",
": 	c #003C1D",
"< 	c #006933",
"[ 	c #001A0D",
"} 	c #009649",
"| 	c #003319",
"1 	c #006C35",
"2 	c #007037",
"3 	c #00190C",
"4 	c #009448",
"5 	c #006B34",
"6 	c #006F36",
"7 	c #003218",
"8 	c #000402",
"9 	c #006A34",
"0 	c #008E45",
"a 	c #007238",
"b 	c #007338",
"c 	c #007137",
"d 	c #008A43",
"e 	c #006632",
"f 	c #00A651",
"g 	c #00823F",
"h 	c #001108",
"i 	c #006330",
"j 	c #00994B",
"k 	c #007E3D",
"l 	c #007F3E",
"m 	c #007D3D",
"n 	c #00984A",
"o 	c #006E36",
"p 	c #000703",
"q 	c #002E16",
"r 	c #00A350",
"s 	c #008541",
"t 	c #00803E",
"u 	c #00391C",
"v 	c #00A34F",
"w 	c #007539",
"x 	c #00A04E",
"y 	c #009147",
"z 	c #009247",
"A 	c #00A14E",
"B 	c #007439",
"C 	c #008F46",
"D 	c #009C4C",
"E 	c #009F4E",
"F 	c #008440",
"G 	c #008340",
"H 	c #009E4D",
"I 	c #009D4D",
"J 	c #00813F",
"K 	c #008943",
"L 	c #00763A",
"M 	c #008742",
"N 	c #008C44",
"O 	c #00A550",
"P 	c #007639",
"Q 	c #003419",
"R 	c #009A4B",
"S 	c #00783B",
"T 	c #006D35",
"U 	c #00974A",
"V 	c #000603",
"W 	c #000D06",
"X 	c #007C3D",
"Y 	c #007C3C",
"Z 	c #004622",
"` 	c #004924",
" .	c #000B05",
". . . . . . . + @ # $ % & . . . . . . . ",
". . . . . . * = - ; > , ' ) . . . . . . ",
". . . . . ! ~ { ] . . ^ = / . . . . . . ",
". . . . . ( _ : . . . . { < . . . . . . ",
". . . . . [ } | . . . . 1 2 . . . . . . ",
". . . . . 3 4 | . . . . 5 6 . . . . . . ",
". . . . . 3 4 7 8 & & ! 9 6 . . . . . . ",
". . . . . ( 0 % 6 a b c d e . . . . . . ",
". . . . . ^ 4 f f g g f f g h . . . . . ",
". . . . ] i f j k l l m n f o p . . . . ",
". . . . q r _ a s t t s c 4 f u . . . . ",
". . . . < v w c x y z A c b A B . . . . ",
". . . . $ C k D m b c t E k # z . . . . ",
". . . . y F G n c H I c j G J _ . . . . ",
". . . . K s L M b f f b K @ g C . . . . ",
". . . . o N d O c s F c r $ K P . . . . ",
". . . . Q R ' s z - - z K S = : . . . . ",
". . . . 8 9 C T x U } A 2 # a V . . . . ",
". . . . . W o C X Y Y Y 0 b h . . . . . ",
". . . . . . ) Z 6 { { c `  .. . . . . . "};
